<?xml version="1.0" standalone="no"?>
<!DOCTYPE svg PUBLIC "-//W3C//DTD SVG 20010904//EN"
 "http://www.w3.org/TR/2001/REC-SVG-20010904/DTD/svg10.dtd">
<svg version="1.0" xmlns="http://www.w3.org/2000/svg"
 width="800.000000pt" height="800.000000pt" viewBox="0 0 800.000000 800.000000"
 preserveAspectRatio="xMidYMid meet">
<metadata>
Created by potrace 1.16, written by Peter Selinger 2001-2019
</metadata>
<g transform="translate(0.000000,800.000000) scale(0.100000,-0.100000)"
fill="#000000" stroke="none">
<path d="M6096 7973 c-3 -16 -8 -44 -11 -63 -3 -19 -7 -47 -9 -62 -3 -15 -7
-76 -11 -135 -3 -60 -8 -119 -10 -133 -3 -14 -1 -41 4 -60 5 -19 9 -28 10 -20
1 13 2 13 11 0 12 -19 13 -60 1 -60 -5 0 -7 -9 -4 -20 3 -11 1 -20 -5 -20 -33
0 -40 -256 -16 -582 5 -61 3 -92 -5 -102 -8 -10 -12 -70 -13 -185 0 -94 -4
-171 -9 -171 -5 0 -9 -9 -9 -20 0 -11 5 -20 10 -20 6 0 5 -6 -2 -14 -7 -8 -16
-12 -19 -10 -12 7 -19 -25 -25 -120 -5 -70 -3 -101 7 -125 8 -17 17 -31 21
-31 4 0 5 -12 4 -27 -2 -16 -4 -37 -5 -48 -2 -19 -3 -19 -15 3 -12 22 -13 21
-24 -28 -15 -63 -16 -200 -2 -200 13 0 13 -65 0 -110 -8 -27 -6 -45 10 -88 11
-29 18 -57 15 -62 -3 -5 -1 -11 5 -15 17 -10 11 -25 -10 -25 -28 0 -25 -20 3
-21 21 -1 21 -1 -3 -9 l-25 -7 24 -10 c22 -9 23 -10 5 -17 -15 -6 -16 -9 -4
-16 7 -5 15 -20 17 -34 3 -20 0 -24 -13 -19 -12 4 -15 2 -12 -8 3 -8 11 -13
17 -11 15 3 14 -15 -1 -21 -8 -3 -6 -6 5 -6 21 -1 23 -21 1 -21 -13 0 -15 -6
-9 -27 8 -32 13 -55 14 -65 1 -4 9 -5 19 -2 14 5 14 4 2 -4 -8 -6 -18 -8 -22
-6 -4 3 -8 -2 -8 -10 0 -9 4 -16 10 -16 5 0 7 -6 4 -14 -3 -8 2 -16 13 -19 16
-4 16 -5 1 -6 -21 -1 -23 -12 -6 -29 7 -7 8 -12 2 -12 -5 0 -9 -12 -8 -27 1
-16 3 -28 4 -28 1 0 3 -29 4 -64 1 -54 4 -65 20 -71 19 -6 19 -7 -1 -12 -16
-4 -20 -11 -16 -27 3 -13 1 -21 -7 -21 -8 0 -11 9 -8 25 4 16 1 25 -8 25 -20
0 -28 -21 -13 -32 10 -6 7 -8 -11 -7 -39 2 -43 0 -30 -16 9 -11 10 -15 1 -15
-8 0 -10 -8 -6 -19 3 -11 2 -22 -2 -24 -11 -7 -63 4 -63 13 0 4 11 5 24 3 23
-5 25 -2 23 31 -1 26 -6 35 -15 31 -8 -3 -15 -5 -18 -5 -2 0 -1 -7 2 -15 4
-10 0 -15 -15 -15 -17 0 -21 -6 -21 -31 0 -23 4 -30 15 -26 8 4 17 2 20 -3 4
-6 -3 -10 -14 -10 -14 0 -19 -5 -15 -15 4 -8 11 -12 17 -8 24 14 59 9 66 -11
8 -19 8 -19 13 1 5 19 10 20 44 13 21 -5 42 -7 46 -4 4 3 8 -2 8 -11 0 -11 5
-15 15 -11 9 3 31 -11 58 -37 45 -44 173 -147 184 -147 3 0 25 -18 49 -40 24
-22 48 -40 54 -40 14 0 93 -52 103 -67 4 -7 14 -13 21 -13 7 0 30 -16 52 -35
21 -19 48 -38 59 -41 11 -4 22 -10 25 -14 3 -4 40 -32 82 -63 42 -31 80 -62
83 -68 4 -5 17 -14 30 -19 12 -5 58 -36 103 -70 57 -44 91 -79 117 -121 36
-59 37 -62 36 -160 0 -55 -3 -133 -6 -172 -3 -40 -7 -121 -9 -182 -3 -60 -7
-171 -11 -245 -6 -138 -8 -210 -21 -731 l-7 -295 37 4 c35 4 36 3 36 -29 0
-49 10 -79 26 -79 18 0 18 -14 -1 -30 -16 -13 -19 -38 -9 -65 16 -42 143 -74
295 -75 70 0 79 -2 118 -33 41 -31 42 -32 17 -35 -30 -4 -47 -30 -40 -58 3
-11 25 -32 50 -48 37 -23 62 -30 132 -36 69 -6 193 -38 210 -55 2 -1 5 -58 7
-126 4 -147 10 -188 30 -208 13 -14 15 209 15 1969 0 1091 -3 1980 -7 1976 -4
-3 -8 -68 -9 -143 -3 -142 -9 -187 -23 -179 -5 3 -11 23 -13 44 -4 23 -16 49
-32 65 -25 26 -26 29 -25 159 1 284 15 521 33 556 9 18 14 42 11 52 -3 11 -2
28 4 37 9 16 10 14 11 -9 0 -16 4 -28 9 -28 9 0 22 -44 28 -99 8 -77 13 -36
13 116 0 138 -2 162 -16 167 -24 9 -34 -2 -34 -39 0 -40 -15 -53 -29 -27 -15
28 -2 284 19 367 12 52 15 87 10 135 -4 36 -6 112 -4 170 8 241 25 581 35 670
5 52 12 265 15 473 l6 377 -59 0 -60 0 -6 -207 c-4 -115 -14 -311 -22 -438 -8
-126 -17 -317 -20 -424 -3 -106 -7 -203 -10 -215 -2 -11 -7 -44 -9 -73 -3 -29
-8 -74 -10 -100 -17 -151 -18 -246 -9 -545 3 -110 2 -158 -6 -158 -6 0 -11 -9
-11 -19 0 -11 -4 -22 -9 -25 -5 -3 -7 -14 -4 -25 3 -13 -2 -20 -17 -24 -12 -3
-20 -11 -18 -19 3 -7 -1 -26 -7 -43 -11 -27 -11 -112 -1 -158 3 -13 0 -17 -10
-13 -16 6 -20 -19 -4 -29 6 -3 10 -21 11 -38 0 -38 21 -137 32 -154 12 -19 11
-97 -1 -101 -16 -5 -16 -72 1 -72 8 -1 7 -5 -4 -13 -9 -7 -19 -28 -23 -48 -3
-21 -15 -48 -26 -62 -11 -13 -17 -27 -14 -30 3 -3 -2 -20 -11 -38 -13 -24 -19
-29 -24 -18 -7 13 -1 210 14 479 14 262 14 269 2 230 -6 -19 -15 -38 -20 -42
-6 -3 -11 -83 -11 -185 -2 -181 -11 -233 -43 -233 -7 0 -13 -9 -13 -20 0 -11
-4 -20 -9 -20 -5 0 -12 -18 -16 -40 -4 -22 -12 -40 -18 -40 -7 0 -6 -5 3 -10
12 -8 12 -12 2 -18 -12 -8 -21 -77 -11 -87 12 -12 30 17 35 56 5 45 10 56 19
47 12 -12 16 -197 6 -297 -6 -58 -13 -139 -17 -178 -4 -53 -10 -73 -20 -73 -8
0 -14 11 -15 28 l-1 27 -8 -25 c-4 -14 -9 -20 -10 -15 -1 6 -3 15 -4 20 -5 25
-19 44 -29 38 -6 -4 -7 -1 -2 6 4 7 2 39 -5 71 -9 44 -16 57 -29 55 -9 -1 -16
-11 -16 -21 -1 -25 -14 -46 -25 -39 -5 3 -7 12 -3 20 3 8 1 15 -5 15 -6 0 -9
-12 -7 -27 4 -35 -4 -73 -16 -73 -5 0 -9 8 -9 17 0 12 -3 14 -11 6 -15 -15 -3
-33 22 -33 10 0 19 -7 19 -15 0 -8 -4 -15 -9 -15 -17 0 -20 -30 -4 -46 14 -13
14 -17 2 -25 -10 -6 -10 -9 -1 -9 6 0 12 -7 12 -15 0 -8 9 -30 20 -50 13 -23
18 -45 14 -60 -4 -15 -2 -25 5 -25 6 0 11 5 11 10 0 6 5 10 10 10 13 0 13 -33
1 -45 -5 -6 -7 -23 -4 -39 5 -26 8 -28 44 -23 36 5 39 3 39 -19 0 -19 -8 -28
-32 -39 -18 -7 -36 -11 -40 -9 -5 3 -8 0 -8 -5 0 -6 -9 -11 -20 -11 -11 0 -20
-4 -20 -10 0 -5 -7 -10 -15 -10 -29 0 -85 -34 -85 -52 0 -10 -4 -18 -10 -18
-5 0 -10 -6 -10 -12 -1 -7 -7 -26 -16 -43 -13 -27 -14 -14 -9 140 3 94 14 256
25 360 16 159 31 424 46 790 1 39 10 138 19 220 9 83 14 168 10 190 -3 22 -6
91 -5 155 2 281 19 492 45 540 20 38 21 110 2 147 -24 46 -23 137 2 160 17 15
19 29 17 83 -2 36 -6 72 -9 80 -5 13 -11 75 -20 202 -1 20 -6 36 -12 35 -5 -1
-9 8 -8 20 2 16 -2 21 -12 17 -10 -4 -15 0 -15 12 0 11 -3 28 -6 39 -3 13 3
29 17 44 12 13 22 36 23 52 1 16 7 29 14 29 8 0 12 17 13 48 3 96 6 118 20
142 13 24 15 53 21 345 1 39 0 94 -2 123 l-3 52 -96 0 -96 0 2 -127 c1 -71 -2
-152 -8 -182 -5 -30 -12 -117 -15 -195 -4 -93 -11 -149 -20 -163 -8 -12 -14
-31 -14 -41 0 -10 -3 -21 -6 -25 -6 -6 -9 -35 -18 -171 -3 -49 -10 -82 -18
-87 -10 -7 -10 -9 0 -9 7 0 12 -14 12 -34 0 -19 3 -37 8 -39 8 -6 7 -67 -3
-407 -6 -182 -11 -232 -25 -264 -10 -22 -19 -33 -22 -25 -5 15 -38 -74 -38
-103 0 -11 5 -16 10 -13 6 4 10 -9 11 -32 1 -41 16 -101 18 -70 1 9 6 17 11
17 12 0 13 -122 1 -170 -13 -48 -34 -104 -44 -111 -4 -3 -10 -23 -14 -45 -3
-21 -11 -50 -18 -64 -14 -29 -17 -120 -4 -120 5 0 11 12 15 28 10 46 11 48 22
22 6 -14 11 -18 11 -11 1 12 4 12 13 3 27 -27 27 -91 -3 -247 -6 -33 -10 -77
-10 -98 1 -25 -3 -39 -14 -43 -8 -4 -15 -10 -15 -16 0 -5 5 -6 10 -3 6 4 10
-5 10 -19 0 -14 -4 -26 -10 -26 -5 0 -10 -9 -10 -20 0 -11 -4 -20 -10 -20 -5
0 -10 -22 -10 -50 0 -27 -4 -50 -10 -50 -5 0 -10 6 -11 13 0 6 -4 3 -9 -8 -7
-17 -9 -17 -9 -2 -1 9 -10 26 -21 37 -18 18 -20 18 -29 2 -9 -15 -10 -14 -11
8 0 14 -7 34 -15 44 -18 24 -20 141 -4 291 5 55 10 132 10 170 0 39 8 178 16
310 9 132 17 393 19 580 2 187 6 378 9 425 3 47 6 97 5 113 0 15 5 56 11 90
12 71 15 123 24 367 3 96 12 218 20 270 8 52 15 145 16 205 l3 110 -91 3 -91
3 -11 -48 c-6 -26 -13 -70 -17 -98 -3 -27 -13 -77 -22 -110 -11 -44 -16 -109
-17 -240 0 -99 -4 -186 -9 -193 -4 -8 -5 -37 -2 -65 4 -32 1 -91 -9 -151 -9
-54 -14 -105 -11 -112 3 -8 -1 -29 -9 -48 -11 -25 -18 -108 -25 -288 -5 -139
-13 -314 -16 -388 -4 -74 -8 -184 -9 -245 -2 -128 -10 -178 -30 -195 -9 -8
-13 -21 -9 -36 4 -15 2 -24 -5 -24 -6 0 -11 -11 -11 -25 0 -14 -4 -25 -9 -25
-6 0 -12 -21 -14 -47 -3 -27 -3 42 -1 152 9 418 23 845 33 965 5 69 13 181 16
250 4 69 13 217 21 330 13 191 16 249 29 533 l5 107 -48 0 -49 0 -7 -82 c-8
-107 -25 -178 -42 -171 -16 6 -24 -47 -25 -167 -2 -237 -2 -348 1 -385 5 -60
-10 -285 -21 -325 -11 -37 -24 -382 -37 -928 -6 -271 -9 -324 -22 -332 -11 -7
-17 -4 -21 8 -3 9 -12 17 -20 17 -7 0 -19 18 -26 40 -14 45 -9 294 8 495 6 63
12 187 13 275 4 219 24 748 36 928 6 81 10 255 10 387 l0 240 -74 0 -74 0 -6
-62 c-3 -35 -8 -169 -10 -298 -3 -129 -10 -282 -15 -340 -5 -58 -12 -251 -16
-429 -3 -179 -8 -327 -10 -330 -2 -3 -6 -102 -9 -220 -6 -215 -20 -346 -37
-335 -5 3 -9 -4 -9 -16 0 -12 5 -18 10 -15 6 3 10 -1 10 -9 0 -9 -6 -16 -12
-16 -10 0 -10 -2 -1 -8 6 -4 13 -43 16 -92 3 -66 1 -90 -11 -109 -10 -15 -15
-41 -13 -72 2 -31 -2 -49 -9 -49 -6 0 -8 -5 -4 -12 4 -7 3 -8 -4 -4 -7 4 -12
14 -12 22 0 8 -6 14 -12 14 -10 0 -14 38 -16 145 -4 144 -4 145 18 145 15 0
20 5 17 15 -4 8 -1 17 4 21 15 9 1 74 -19 98 -16 16 -17 61 -12 505 4 501 4
700 0 856 -2 50 0 146 3 215 8 165 -9 300 -39 300 -8 0 -14 5 -14 11 0 5 4 8
9 5 11 -7 24 41 16 54 -4 6 -24 10 -45 10 -34 0 -39 -3 -44 -27z m1873 -3410
c0 -16 1 -35 1 -43 1 -8 -1 -58 -5 -110 -7 -108 -7 -119 -4 -140 1 -8 1 -60 1
-115 -2 -90 -4 -102 -23 -113 -12 -8 -30 -15 -40 -17 -19 -4 -19 4 -17 190 3
189 4 195 26 210 19 14 22 25 22 81 0 41 4 63 10 59 6 -3 10 1 10 9 0 9 4 16
10 16 5 0 9 -12 9 -27z"/>
<path d="M2120 6829 c-25 -6 -59 -16 -76 -24 -16 -8 -46 -16 -65 -19 -19 -2
-45 -7 -59 -11 -43 -11 -666 -32 -1447 -50 -201 -5 -257 -3 -275 7 -16 10 -50
13 -110 10 l-88 -3 0 -31 0 -31 98 7 c492 32 1779 58 1812 36 11 -7 4 -10 -27
-10 -38 0 -71 -19 -47 -27 43 -15 42 -35 -2 -35 -17 0 -22 -3 -13 -9 7 -4 17
-5 21 -3 4 3 8 -3 8 -14 0 -10 10 -24 23 -30 21 -10 21 -11 -8 -11 -26 -1 -31
-5 -33 -28 -1 -14 1 -24 4 -20 4 3 18 -3 32 -13 15 -13 29 -17 36 -11 16 13
76 1 76 -15 0 -8 -5 -14 -11 -14 -5 0 -7 -5 -4 -10 4 -6 11 -8 16 -4 13 7 41
-15 33 -27 -3 -5 6 -9 19 -9 26 0 45 -36 27 -54 -15 -15 44 -66 70 -59 19 5
21 3 15 -16 -4 -12 -2 -21 4 -21 6 0 11 11 11 25 0 18 5 25 20 25 11 0 20 -5
20 -12 0 -6 7 -3 15 8 13 18 14 16 16 -21 1 -22 4 -67 7 -100 2 -33 5 -84 6
-112 0 -29 4 -53 9 -53 4 0 7 -5 7 -11 0 -5 -4 -8 -9 -4 -5 3 -12 1 -16 -5 -3
-5 -1 -10 4 -10 6 0 11 -9 11 -20 0 -11 -5 -20 -11 -20 -5 0 -7 5 -4 10 6 9
-20 15 -57 12 -22 -2 -94 -52 -91 -63 2 -5 0 -8 -5 -8 -43 7 -32 -35 14 -49
20 -6 36 -6 40 -1 6 11 64 12 64 1 0 -13 -35 -29 -57 -26 -16 3 -23 -1 -23
-11 0 -9 -10 -20 -22 -25 l-23 -9 23 0 c13 -1 22 -7 22 -16 0 -19 9 -19 31 1
10 9 25 14 34 11 18 -8 20 -53 3 -60 -8 -3 -1 -9 14 -15 19 -8 26 -16 22 -27
-7 -17 -24 -21 -24 -5 0 6 -7 10 -15 10 -8 0 -15 -6 -15 -12 0 -10 -2 -10 -8
0 -5 7 -16 10 -26 6 -16 -6 -16 -8 0 -25 25 -27 10 -37 -66 -45 -66 -6 -86
-16 -57 -27 9 -4 8 -8 -3 -16 -12 -9 -11 -11 10 -12 14 -1 29 -1 34 0 5 1 13
-4 17 -11 7 -10 9 -10 9 0 0 6 5 12 10 12 6 0 10 -11 10 -25 0 -14 4 -25 9
-25 5 0 7 -9 4 -20 -6 -23 -33 -27 -33 -5 0 9 -6 12 -15 9 -10 -4 -15 0 -15
15 0 16 -6 21 -27 20 -19 0 -23 -3 -13 -7 21 -10 24 -48 5 -56 -9 -3 -13 -11
-10 -17 4 -6 14 -8 22 -5 11 4 13 2 9 -9 -3 -8 0 -15 7 -15 14 -1 49 -65 40
-74 -4 -3 -11 -6 -17 -6 -6 0 -4 5 4 10 8 5 10 10 4 10 -6 0 -17 -6 -23 -14
-6 -7 -26 -17 -44 -21 l-32 -8 28 -4 c15 -3 27 -11 27 -19 0 -8 7 -17 15 -20
8 -4 15 -12 15 -20 0 -7 12 -17 26 -20 14 -4 29 -17 34 -30 5 -12 25 -30 44
-39 20 -10 52 -35 72 -57 25 -28 41 -38 55 -35 30 8 40 -23 33 -102 -4 -39
-10 -68 -14 -66 -4 3 -13 -2 -20 -10 -13 -16 -43 -9 -33 9 4 6 -1 5 -10 -2 -9
-8 -20 -11 -26 -8 -5 3 -11 -1 -15 -9 -3 -9 -19 -15 -41 -15 -24 0 -35 -5 -35
-14 0 -8 -10 -22 -22 -30 -22 -15 -22 -16 -2 -16 11 0 25 5 31 11 13 13 33 4
33 -15 0 -8 -19 -15 -51 -19 -55 -7 -109 -27 -109 -40 0 -5 -4 -6 -9 -2 -11 6
-34 -29 -25 -37 3 -3 -14 -2 -37 2 -24 5 -49 6 -56 3 -8 -3 -13 2 -13 15 0 16
-6 19 -32 16 -38 -5 -42 -8 -44 -40 -1 -27 28 -50 59 -45 19 3 18 7 22 -78 2
-55 -1 -64 -17 -69 -26 -6 -23 -17 17 -58 19 -19 35 -40 35 -45 0 -11 36 -30
43 -22 4 3 5 -4 2 -15 -2 -11 3 -26 11 -33 9 -7 14 -8 14 -1 0 6 -6 13 -12 15
-10 4 -10 6 -1 6 20 2 27 -21 10 -34 -18 -13 -24 -30 -7 -20 6 3 10 3 10 -2 0
-4 18 -9 40 -10 22 0 38 2 36 5 -9 15 74 3 108 -16 5 -3 6 0 2 6 -9 14 -1 15
42 3 20 -6 32 -6 32 0 0 13 27 11 36 -3 5 -8 2 -9 -9 -5 -10 4 -17 2 -17 -4 0
-7 14 -9 38 -6 29 3 44 -1 72 -22 19 -14 51 -34 70 -45 19 -10 39 -24 43 -30
5 -6 6 25 3 69 -3 44 -12 206 -21 360 -20 351 -62 942 -81 1140 -7 83 -14 190
-14 238 0 49 -3 86 -7 84 -5 -3 -8 23 -8 56 -1 52 -22 304 -53 632 l-7 70 -60
2 c-33 1 -80 -3 -105 -8z m167 -284 c5 -22 11 -67 12 -100 1 -33 5 -61 9 -63
4 -1 7 -37 6 -80 0 -42 5 -94 13 -116 15 -46 16 -49 4 -42 -5 4 -12 0 -14 -6
-3 -7 -6 5 -7 27 -1 22 -4 58 -8 80 -6 31 -9 36 -15 22 -4 -11 -5 -22 -3 -25
15 -25 49 -569 35 -554 -13 13 -31 241 -49 622 -5 125 -6 290 0 283 4 -4 12
-26 17 -48z"/>
<path d="M1523 6420 c-48 -20 -587 -47 -1038 -53 -187 -3 -232 -9 -204 -29 11
-7 11 -11 2 -15 -18 -7 -16 -32 2 -39 8 -4 15 -17 15 -31 0 -13 4 -21 10 -18
6 4 7 -1 3 -10 -3 -10 -1 -20 5 -24 7 -4 14 -25 18 -46 3 -22 7 -51 10 -65 8
-52 13 -141 19 -327 6 -179 5 -192 -13 -210 -24 -23 -34 -51 -21 -59 5 -3 16
-1 24 6 8 7 15 7 19 1 4 -5 1 -13 -5 -16 -5 -4 -8 -14 -5 -22 3 -8 2 -23 -4
-33 -10 -18 10 -73 31 -86 6 -4 6 -11 -1 -19 -7 -8 -9 -24 -5 -36 4 -11 7 -46
6 -76 0 -66 10 -72 107 -62 37 4 105 10 151 13 45 3 86 8 90 10 3 2 53 7 111
11 57 4 107 8 111 10 3 2 55 7 115 10 60 4 136 11 169 16 33 6 114 12 180 14
221 8 255 17 239 67 -4 13 -6 49 -5 81 2 56 -9 87 -31 87 -6 0 -8 -33 -6 -79
l3 -80 -40 -5 c-96 -13 -1037 -99 -1100 -100 -28 -1 -30 2 -37 44 -3 25 -7 88
-7 140 -1 52 -6 133 -11 180 -19 158 -70 703 -70 745 0 33 17 34 445 45 198 4
449 11 558 15 l197 6 0 -24 c0 -14 7 -30 15 -37 10 -9 15 -9 15 -1 0 6 6 11
14 11 38 0 27 64 -15 85 -32 17 -35 17 -66 5z"/>
<path d="M4670 6273 c-14 -2 -56 -8 -95 -15 -38 -7 -74 -13 -80 -13 -5 0 -12
-2 -15 -5 -10 -10 -90 -51 -90 -46 0 11 -108 -112 -127 -144 -35 -60 -65 -162
-67 -227 -1 -58 -3 -63 -27 -68 -21 -5 -25 -12 -28 -47 -2 -35 -24 -89 -92
-220 -5 -10 -9 -24 -9 -32 0 -8 -4 -17 -9 -21 -6 -3 -8 7 -5 22 3 25 1 23 -18
-12 -12 -22 -21 -44 -20 -49 2 -4 -4 -19 -12 -31 -9 -13 -17 -38 -20 -57 -9
-63 -17 -93 -29 -100 -21 -13 -1 -19 89 -28 108 -12 151 -23 178 -49 12 -11
35 -21 51 -23 28 -3 30 -6 33 -53 2 -27 7 -54 11 -60 9 -11 7 -81 -4 -142 -8
-51 23 -132 55 -140 11 -3 17 -9 14 -14 -3 -5 2 -6 10 -3 28 11 72 -23 84 -64
23 -78 9 -120 -40 -124 -16 -1 -28 -8 -28 -14 0 -13 52 -6 61 9 8 11 79 -93
79 -115 0 -9 7 -21 15 -28 8 -7 36 -46 62 -87 44 -72 45 -75 34 -114 -6 -21
-16 -39 -21 -39 -29 0 -5 -34 109 -155 33 -35 55 -74 47 -83 -3 -3 -6 0 -6 6
0 6 -8 13 -19 17 -10 3 -32 18 -48 33 -17 15 -44 38 -62 51 -17 13 -31 27 -31
32 0 5 -20 34 -44 63 -24 30 -47 64 -51 75 -3 12 -20 28 -36 36 -16 9 -29 22
-29 30 0 9 -11 20 -24 26 -25 12 -51 55 -61 101 -3 18 -17 33 -40 44 -20 9
-34 19 -31 21 2 3 14 0 25 -7 14 -7 21 -7 21 0 0 5 -4 10 -9 10 -16 0 -5 30
16 45 11 8 22 12 24 10 3 -2 4 7 4 21 -1 13 -7 30 -15 37 -10 10 -12 8 -6 -7
7 -19 6 -19 -13 -1 -19 16 -19 19 -4 30 11 8 13 14 5 19 -7 4 -16 5 -20 2 -20
-12 -29 11 -22 62 3 28 3 52 -1 52 -15 0 -31 -31 -26 -51 10 -39 -84 -109
-104 -78 -5 8 -9 10 -9 5 0 -5 -8 -2 -18 7 -10 10 -23 14 -27 10 -5 -5 -3 0 4
9 11 15 10 17 -8 13 -26 -5 -61 49 -61 96 0 27 -3 31 -11 19 -8 -12 -12 -12
-16 -2 -4 10 -8 10 -19 1 -11 -9 -14 -9 -14 0 0 7 -3 10 -7 8 -5 -2 -19 6 -32
19 l-25 23 23 -6 c20 -5 22 -3 17 15 -9 28 8 36 41 17 128 -72 128 -72 120
-52 -3 7 5 13 20 13 34 3 39 11 20 32 -10 10 -17 24 -17 30 0 6 -16 16 -37 21
-20 6 -48 22 -63 36 -15 14 -38 27 -51 29 -13 2 -31 6 -39 9 -8 3 -28 8 -45
12 -52 11 -98 37 -83 46 10 7 10 9 0 9 -30 0 -24 -32 14 -68 61 -57 91 -94 72
-87 -22 9 -35 -15 -14 -27 9 -5 16 -17 15 -26 0 -14 -2 -13 -9 3 -6 14 -9 15
-10 5 0 -11 -6 -8 -20 9 -11 13 -20 18 -20 12 0 -7 -4 -10 -9 -7 -19 12 -39
-7 -45 -43 -4 -30 -12 -40 -39 -53 -40 -19 -71 -76 -65 -119 3 -15 1 -26 -4
-23 -4 3 -8 0 -8 -5 0 -19 -28 -12 -44 11 -19 26 -35 15 -18 -12 6 -11 10 -25
8 -32 -1 -7 -1 -10 1 -6 6 9 33 -2 33 -14 0 -5 -6 -6 -12 -2 -10 6 -10 4 0 -8
8 -10 10 -26 6 -42 -5 -22 -10 -25 -32 -19 -21 5 -24 3 -18 -12 4 -10 0 -28
-10 -43 -16 -25 -17 -25 -31 -6 -9 12 -16 15 -21 8 -4 -6 -15 -11 -26 -11 -15
0 -17 6 -12 41 5 38 2 34 -39 -44 -24 -47 -52 -100 -60 -119 -9 -18 -25 -43
-36 -54 -58 -63 -52 -289 9 -368 40 -51 54 -90 49 -140 -3 -31 0 -55 9 -66 9
-12 14 -14 15 -5 1 6 2 15 3 20 1 4 6 26 10 50 8 41 10 43 39 40 23 -2 32 -8
31 -20 -1 -10 3 -18 9 -18 5 0 2 -9 -7 -19 -10 -11 -15 -25 -11 -30 3 -6 2
-11 -3 -11 -5 0 -12 -10 -15 -21 -4 -16 -11 -20 -26 -16 -13 3 -19 1 -15 -5 3
-5 15 -8 25 -5 11 3 19 1 19 -4 0 -4 7 -6 15 -3 11 4 15 -1 15 -17 0 -15 18
-40 51 -71 28 -26 49 -48 47 -48 -3 0 16 -21 41 -47 46 -49 66 -54 89 -25 14
18 16 4 2 -18 -12 -20 9 -47 22 -28 5 8 6 2 2 -16 -5 -22 -4 -27 6 -21 12 7
10 -7 -7 -52 -3 -7 -1 -13 3 -13 5 0 10 -23 11 -52 l1 -52 -34 71 c-18 40 -38
74 -44 78 -5 3 -10 14 -10 24 0 25 -28 47 -41 34 -8 -8 -5 -17 10 -32 12 -12
19 -26 16 -31 -4 -6 -1 -10 4 -10 6 0 11 -17 12 -37 1 -33 2 -34 8 -13 7 25 7
24 19 -10 11 -30 10 -37 -5 -49 -16 -12 -16 -13 -1 -8 16 6 43 -15 33 -24 -2
-3 0 -23 6 -45 15 -53 18 -84 8 -84 -4 0 -11 16 -15 36 -4 19 -13 38 -21 41
-22 9 -27 -4 -8 -23 15 -16 16 -18 0 -26 -12 -7 -13 -13 -5 -23 6 -7 10 -19 9
-27 -4 -34 2 -69 11 -63 7 4 9 -2 4 -19 -5 -20 -2 -26 11 -26 15 0 15 -2 4
-16 -10 -13 -10 -17 1 -24 7 -4 10 -15 7 -24 -4 -9 -3 -16 1 -16 4 0 8 -25 9
-55 2 -33 -1 -55 -8 -55 -5 0 -9 6 -8 13 4 31 -1 40 -16 27 -8 -6 -19 -9 -25
-5 -5 3 -10 2 -10 -4 0 -6 -7 -8 -16 -4 -14 5 -16 2 -10 -20 4 -16 2 -27 -4
-27 -5 0 -10 -4 -10 -10 0 -5 6 -10 14 -10 15 0 28 -58 14 -66 -4 -3 -8 -10
-8 -15 0 -6 4 -8 8 -5 5 3 8 -5 7 -17 -1 -12 3 -25 9 -29 8 -6 7 -11 -2 -17
-11 -6 -9 -16 8 -46 17 -30 19 -40 8 -46 -10 -7 -10 -9 0 -9 6 0 12 -10 12
-22 0 -19 -2 -20 -10 -8 -8 13 -10 12 -10 -3 0 -10 10 -22 23 -27 17 -7 18 -9
5 -9 -20 -1 -23 -12 -8 -27 6 -6 6 -15 0 -24 -7 -12 -11 -8 -16 17 -4 18 -10
31 -14 28 -3 -2 -6 15 -6 38 1 34 -3 42 -19 45 -15 2 -17 1 -6 -6 11 -8 11
-10 0 -15 -10 -4 -9 -6 4 -6 21 -1 23 -21 2 -21 -8 0 -15 -4 -15 -10 0 -5 5
-10 11 -10 7 0 9 -10 5 -25 -4 -16 -2 -25 5 -25 15 0 3 -13 -14 -16 -11 -1
-14 13 -17 68 -1 10 -5 18 -9 18 -4 0 -7 14 -6 30 1 17 -2 30 -6 30 -5 0 -6 7
-3 15 4 8 1 15 -5 15 -11 0 -8 -116 3 -128 3 -3 1 -11 -5 -19 -9 -10 -8 -13 1
-13 7 0 10 -6 7 -14 -3 -8 1 -20 9 -27 11 -9 12 -15 2 -26 -7 -9 -8 -17 -2
-21 5 -4 9 -14 9 -22 -1 -8 3 -21 8 -28 7 -8 4 -12 -11 -12 -21 0 -32 29 -34
89 -1 33 -5 36 -27 22 -10 -6 -10 -10 -1 -16 7 -4 9 -17 6 -31 -4 -16 -2 -24
6 -24 9 0 9 -3 -2 -10 -9 -6 -19 -5 -28 2 -11 10 -11 13 2 20 9 5 16 14 16 20
0 6 -7 5 -16 -3 -15 -12 -16 -11 -10 9 5 13 3 29 -4 36 -6 8 -10 18 -9 22 1 5
1 18 0 29 -1 15 -4 17 -10 7 -9 -15 -3 -61 12 -79 6 -8 6 -13 0 -13 -15 0 -11
-59 4 -64 9 -4 11 -11 6 -18 -13 -21 -9 -67 6 -73 11 -4 11 -8 1 -20 -12 -14
-11 -29 6 -69 5 -14 4 -17 -4 -12 -9 5 -11 -6 -8 -38 3 -25 0 -48 -5 -52 -6
-3 -8 -12 -5 -20 3 -8 2 -14 -3 -14 -5 0 -8 19 -8 42 0 27 -6 45 -17 53 -20
15 -21 29 -1 21 12 -4 15 2 14 27 -1 18 -3 24 -6 14 -4 -14 -8 -16 -19 -6 -11
9 -14 7 -15 -12 -2 -43 -16 82 -28 251 -28 407 -31 430 -76 755 -8 61 -18 136
-21 168 -4 45 -8 56 -18 48 -7 -6 -16 -8 -19 -4 -4 3 -7 -2 -7 -13 0 -13 -8
-19 -25 -20 -14 -1 -25 1 -25 5 0 9 -46 8 -56 -1 -4 -4 -14 -2 -22 5 -13 10
-14 9 -8 -1 4 -7 2 -19 -4 -27 -10 -12 -9 -15 9 -15 13 0 19 -4 16 -10 -4 -6
-15 -8 -26 -5 -11 4 -19 2 -19 -5 0 -6 -5 -8 -11 -4 -8 4 -10 -12 -7 -55 2
-35 -1 -62 -7 -65 -6 -2 -16 -32 -23 -67 -7 -35 -17 -77 -22 -94 -35 -122 -43
-176 -27 -188 9 -7 9 -10 0 -14 -7 -2 -13 -10 -13 -16 0 -6 -8 -19 -17 -29
-10 -12 -18 -40 -20 -74 -4 -66 -26 -124 -47 -124 -17 0 -22 -16 -7 -22 5 -1
11 -38 13 -80 2 -43 6 -78 9 -78 4 0 7 -6 6 -12 -1 -39 4 -68 13 -68 6 0 10 7
10 15 0 22 75 24 96 3 12 -13 -7 -30 -21 -18 -7 6 -24 8 -37 5 -31 -8 -37 -52
-8 -57 13 -2 17 -7 11 -16 -7 -11 -12 -11 -28 -1 -28 17 -55 5 -51 -23 2 -13
9 -22 16 -20 20 4 52 -17 46 -31 -2 -7 -22 -24 -44 -37 -22 -14 -40 -30 -40
-37 0 -17 10 -16 33 2 11 7 26 11 35 8 13 -4 14 -3 3 5 -15 11 -8 16 34 27 81
19 102 14 69 -20 -9 -8 -14 -24 -11 -34 3 -14 -8 -22 -54 -41 -33 -13 -59 -29
-59 -37 0 -20 62 -45 73 -30 6 9 10 9 14 0 7 -18 30 -16 42 4 8 14 12 15 25 4
14 -12 16 -11 16 6 0 11 3 23 8 27 4 4 8 11 8 14 7 34 20 51 40 55 16 3 24 0
24 -9 0 -8 -7 -14 -15 -14 -8 0 -15 -4 -15 -10 0 -5 7 -10 15 -10 17 0 19 -14
5 -40 -7 -13 -7 -21 0 -25 20 -12 9 -26 -17 -23 -23 2 -29 -1 -31 -19 -2 -13
1 -23 7 -23 6 0 11 -4 11 -10 0 -5 -7 -10 -16 -10 -10 0 -14 -6 -11 -15 4 -8
2 -17 -3 -20 -4 -3 -10 0 -12 7 -3 7 -7 2 -10 -10 -4 -14 -2 -22 5 -21 47 6
51 -1 18 -33 -23 -22 -29 -34 -20 -37 8 -2 18 -10 22 -17 4 -8 15 -14 22 -14
27 0 18 -48 -12 -64 -16 -8 -43 -28 -61 -45 -34 -31 -62 -40 -62 -20 0 7 -11
9 -30 6 -19 -4 -30 -2 -30 5 0 6 -3 9 -6 5 -9 -9 -34 19 -34 37 0 9 -4 16 -9
16 -5 0 -11 13 -13 30 -4 25 0 31 26 41 17 7 35 12 40 13 5 1 11 7 14 14 5 16
-22 16 -49 0 -17 -11 -22 -10 -32 7 -6 11 -12 45 -13 76 -2 30 -10 129 -18
219 -9 90 -16 191 -16 224 0 32 -3 56 -7 52 -5 -4 -8 -12 -8 -18 0 -16 -45
-20 -61 -7 -10 8 -14 36 -14 93 0 111 -60 1111 -76 1259 -3 31 -10 57 -16 57
-5 0 -7 -8 -4 -17 3 -10 10 -151 16 -313 9 -257 18 -417 35 -630 2 -30 7 -113
10 -185 4 -71 11 -164 16 -205 5 -41 14 -172 19 -290 5 -118 13 -239 16 -267
4 -30 3 -53 -2 -52 -9 0 -95 167 -94 181 0 9 -86 192 -133 283 -29 56 -31 68
-34 180 -1 66 -5 137 -8 157 -3 21 0 40 5 43 8 5 7 11 -1 21 -7 8 -7 14 -1 14
13 0 1 255 -33 705 -3 33 -9 120 -15 194 -5 74 -12 136 -14 138 -9 10 -36 -12
-36 -29 0 -14 -5 -18 -16 -14 -9 3 -21 6 -27 6 -7 0 -6 4 3 10 8 5 11 10 5 10
-12 0 -170 -30 -425 -80 -107 -22 -213 -41 -235 -44 -80 -10 -280 -57 -287
-68 -3 -7 -4 -16 -1 -22 4 -6 -1 -6 -13 -1 -49 22 -124 16 -308 -24 -102 -23
-199 -41 -214 -41 -25 0 -393 -77 -398 -83 -1 -1 5 -62 13 -136 8 -75 11 -137
6 -142 -5 -5 -29 -15 -55 -23 l-46 -13 -11 86 c-6 47 -15 133 -21 191 -6 58
-15 129 -20 159 -6 30 -10 85 -10 123 0 37 -4 68 -9 68 -19 0 -68 -58 -117
-137 -27 -45 -33 -51 -28 -28 11 50 29 77 94 144 l63 64 -6 167 c-4 136 -3
172 9 188 13 19 12 21 -8 24 -55 8 -17 82 49 96 42 9 39 1 34 122 -5 101 11
139 77 193 28 22 31 22 42 -5 8 -22 9 -22 9 4 1 32 31 44 86 34 57 -11 84 -42
101 -119 l16 -67 30 25 c24 21 40 25 89 25 32 0 59 3 59 6 0 3 -7 33 -15 65
-19 71 -52 139 -69 139 -6 -1 -60 -9 -119 -19 -59 -10 -110 -14 -112 -10 -3 4
-10 62 -16 130 -6 68 -13 149 -17 179 -5 51 -6 52 -11 20 -5 -26 -11 -35 -26
-35 -11 0 -20 -7 -21 -15 -1 -8 -2 -33 -2 -56 -2 -47 -37 -99 -45 -67 -4 14
-5 13 -6 -4 0 -13 -7 -23 -15 -23 -8 0 -13 8 -12 18 1 12 -5 16 -23 14 -15 -2
-21 0 -17 7 12 19 -6 12 -26 -11 -14 -16 -21 -19 -30 -10 -17 17 -38 15 -32
-3 4 -8 1 -15 -5 -15 -6 0 -10 5 -8 12 1 7 -5 12 -13 13 -17 0 -27 35 -11 35
6 0 11 7 11 16 0 25 -65 15 -67 -11 -1 -11 -8 -96 -17 -190 -8 -93 -17 -195
-19 -225 -2 -33 -14 -79 -31 -114 -15 -32 -37 -79 -47 -104 -11 -24 -30 -58
-44 -74 -13 -16 -31 -44 -40 -61 -8 -18 -28 -47 -43 -64 -64 -69 -66 -82 -70
-380 l-4 -271 43 -46 c24 -25 48 -46 54 -46 5 -1 28 -21 49 -47 l40 -46 -25
-18 c-13 -11 -30 -24 -37 -30 -7 -6 -38 -18 -68 -26 l-54 -16 0 -1368 0 -1369
935 0 935 0 42 46 c24 26 45 52 48 58 3 7 11 19 18 27 7 8 27 37 45 64 17 28
39 58 48 68 9 10 24 33 34 51 17 31 17 35 2 65 -15 30 -15 34 10 84 14 29 37
68 50 87 27 40 29 71 8 130 -8 23 -15 50 -15 59 0 17 2 19 106 70 127 62 149
74 170 92 11 11 25 19 31 19 6 0 45 18 87 40 41 22 82 40 89 40 8 0 32 17 53
38 44 41 83 62 119 62 35 0 31 -19 -12 -57 -24 -22 -31 -33 -21 -33 9 0 19 -6
22 -12 3 -9 11 -6 24 10 23 25 55 30 46 7 -5 -13 -2 -14 20 -5 39 14 75 43 76
58 0 7 -4 10 -10 7 -16 -10 -12 11 10 48 21 35 56 57 90 57 11 0 20 5 20 10 0
15 36 12 50 -5 7 -8 20 -15 29 -15 22 0 71 23 71 33 0 10 -48 9 -69 -3 -15 -8
-17 -6 -13 15 4 21 1 25 -22 25 -15 0 -26 6 -26 14 0 12 18 22 73 40 10 3 16
10 13 15 -3 5 17 17 44 27 28 10 50 21 50 25 0 4 9 5 19 2 13 -3 29 5 46 23
15 16 39 41 53 56 16 18 36 28 54 28 15 0 28 5 28 11 0 5 4 7 10 4 13 -8 9
-55 -5 -55 -5 0 -29 -21 -53 -47 l-42 -48 27 -5 c14 -3 28 -11 31 -19 3 -8 0
-11 -5 -8 -5 3 -15 2 -22 -3 -10 -5 -4 -10 18 -15 17 -3 31 -11 31 -16 0 -5 7
-9 15 -9 8 0 15 -4 15 -9 0 -5 -7 -11 -15 -15 -8 -3 -15 -10 -15 -15 0 -6 7
-8 16 -4 14 5 16 2 10 -20 -5 -20 -2 -29 14 -37 27 -15 25 -39 -5 -50 -42 -16
-31 -33 17 -26 34 6 39 5 29 -7 -15 -19 2 -33 52 -42 28 -5 35 -11 28 -18 -17
-17 -13 -26 8 -20 10 3 22 0 26 -7 8 -13 65 45 65 66 0 7 9 16 20 19 11 3 20
10 20 15 0 5 6 15 13 22 6 7 23 37 36 66 30 63 48 82 62 61 18 -29 9 -83 -21
-123 -17 -22 -30 -49 -29 -60 0 -12 3 -15 6 -8 6 15 45 16 61 0 9 -9 16 -8 29
4 17 14 83 30 127 29 11 0 25 8 32 17 12 16 14 16 39 -3 15 -11 34 -32 43 -47
14 -24 14 -28 -1 -51 -9 -14 -30 -27 -49 -31 -29 -5 -33 -10 -36 -42 -2 -40
-8 -54 -23 -54 -6 0 -7 5 -3 12 4 7 3 8 -4 4 -20 -12 -14 -39 7 -33 13 3 21
-1 24 -13 4 -15 15 -17 83 -14 47 2 83 -1 91 -8 10 -8 18 -7 31 6 10 9 26 16
35 16 9 0 19 5 22 10 3 6 17 10 31 10 13 0 24 5 24 11 0 5 -6 7 -12 3 -7 -4
-10 -4 -6 1 4 4 76 10 159 11 94 2 157 8 165 15 8 6 14 7 14 2 0 -6 29 -8 73
-5 55 3 81 0 105 -12 39 -20 55 -20 97 0 61 29 74 19 101 -74 13 -46 31 -100
40 -120 27 -62 54 -209 48 -256 -9 -60 15 -76 113 -76 l73 0 1 -47 c2 -35 3
-40 6 -18 9 57 43 71 43 17 0 -28 -30 -62 -54 -62 -8 0 -27 -7 -42 -15 -39
-20 -66 -19 -92 5 -12 11 -34 25 -49 31 -28 10 -212 9 -218 -2 -3 -3 8 -12 23
-20 15 -8 30 -18 35 -24 4 -6 11 -4 17 5 9 15 11 13 14 -12 0 -7 11 -14 24
-16 12 -2 22 -8 22 -13 0 -6 4 -7 10 -4 6 3 10 0 10 -8 0 -8 7 -17 15 -21 8
-3 15 -12 15 -20 0 -8 15 -22 34 -31 18 -9 38 -27 44 -39 8 -17 22 -26 52 -31
23 -4 44 -13 47 -21 4 -11 45 -14 219 -14 230 0 233 1 194 50 -11 14 -20 37
-20 51 0 15 -7 32 -15 39 -17 14 -20 46 -4 55 19 12 27 49 17 80 -5 16 -11 35
-12 40 -2 6 -6 22 -10 37 -6 20 -2 34 15 57 13 17 28 31 33 31 12 0 56 63 56
80 0 5 -17 47 -38 92 -88 191 -124 296 -120 347 4 41 13 44 118 43 41 0 78 5
81 10 5 7 17 7 38 0 22 -8 40 -8 59 -1 15 6 45 8 68 4 23 -3 61 -1 85 4 24 5
48 6 54 2 20 -16 60 -20 75 -8 8 7 31 18 50 25 39 13 236 19 261 8 10 -4 23
-6 30 -5 21 4 113 -12 125 -22 6 -5 40 -7 77 -5 84 4 111 27 121 100 3 27 13
57 21 66 12 13 12 20 2 40 -12 23 -14 65 -9 207 2 55 27 97 43 72 6 -10 11
-10 25 2 9 8 20 13 23 12 3 -2 6 7 6 20 0 16 -5 21 -18 19 -15 -3 -17 1 -12
17 3 12 3 21 -2 21 -9 0 -36 48 -52 92 -6 16 -17 28 -26 28 -8 0 -15 5 -15 10
0 6 4 10 8 10 4 0 9 11 10 26 1 14 -2 23 -8 19 -6 -3 -10 -12 -10 -19 0 -27
-34 -44 -77 -40 -24 2 -43 -1 -43 -6 0 -6 -5 -10 -11 -10 -7 0 -9 10 -7 25 4
20 3 23 -8 14 -8 -6 -14 -17 -14 -23 0 -6 -14 -19 -31 -28 -16 -10 -27 -13
-24 -8 3 6 0 10 -7 10 -10 0 -9 3 2 9 8 6 19 7 25 5 5 -3 2 1 -7 9 -10 8 -18
20 -19 28 0 8 -7 -3 -16 -23 -16 -41 -33 -50 -33 -18 0 11 -4 20 -10 20 -5 0
-10 -8 -10 -18 0 -18 -18 -42 -32 -42 -4 0 -5 8 -2 17 5 15 3 15 -11 -2 -14
-17 -17 -18 -25 -5 -5 8 -10 33 -10 54 0 52 -7 43 -14 -18 -3 -27 -7 -51 -9
-52 -2 -2 -19 -6 -39 -9 -31 -5 -39 -2 -48 16 -7 13 -8 19 -2 15 6 -3 13 -2
17 4 3 5 -1 10 -10 10 -8 0 -20 -12 -26 -27 -10 -27 -11 -27 -25 -9 -8 11 -14
14 -14 7 0 -6 -9 -21 -20 -33 -17 -19 -20 -19 -20 -5 0 9 -4 17 -10 17 -5 0
-10 -6 -10 -14 0 -7 -11 -16 -25 -18 -14 -3 -25 -1 -25 3 0 5 7 9 15 9 8 0 15
4 15 9 0 5 -9 7 -20 4 -11 -3 -20 -12 -20 -19 0 -11 -5 -10 -20 3 -19 16 -19
18 -3 25 15 5 14 7 -4 7 -16 1 -23 -5 -23 -18 0 -11 -4 -23 -10 -26 -5 -3 -10
3 -10 14 0 12 -5 21 -11 21 -5 0 -8 -4 -4 -10 5 -8 -28 -50 -40 -50 -3 0 -5 9
-5 20 0 11 5 20 11 20 5 0 7 5 4 10 -11 18 -35 11 -45 -12 l-9 -23 0 23 c-1
12 -6 22 -12 22 -5 0 -7 6 -4 13 4 6 -1 3 -9 -7 -9 -11 -16 -28 -16 -38 0 -12
-7 -18 -21 -18 -19 0 -19 1 -5 16 9 8 16 17 16 19 0 8 -95 -8 -101 -17 -10
-16 -21 33 -21 100 -1 45 -5 62 -15 62 -8 0 -13 -12 -13 -35 0 -19 5 -35 11
-35 8 0 8 -4 1 -12 -11 -13 -12 -18 -12 -43 0 -8 -6 -12 -15 -9 -8 3 -14 9
-13 12 2 19 -3 32 -13 32 -6 0 -9 -9 -6 -20 3 -11 1 -20 -5 -20 -6 0 -7 -7 -4
-16 9 -23 -3 -36 -18 -21 -10 9 -11 14 -2 20 8 5 7 9 -3 16 -11 7 -11 9 0 13
11 4 12 8 2 20 -10 11 -10 17 0 27 9 9 9 14 -2 20 -11 7 -11 9 0 14 11 4 12 7
2 18 -17 18 -16 29 2 29 8 0 15 5 15 11 0 6 -7 9 -15 5 -8 -3 -15 -1 -15 4 0
6 5 10 11 10 7 0 8 7 4 18 -4 9 -9 29 -11 44 -3 21 0 26 11 22 10 -4 15 1 15
16 0 11 -4 18 -10 15 -5 -3 -10 -2 -10 4 0 11 19 25 26 18 2 -2 8 -24 13 -48
6 -29 9 -35 10 -18 1 28 31 37 31 9 0 -9 5 -21 12 -28 8 -8 9 -12 1 -12 -16 0
-11 -62 6 -68 10 -3 12 0 8 13 -4 9 -4 22 0 28 11 17 9 61 -2 70 -7 6 -6 10 1
13 6 3 9 16 6 29 -3 18 0 25 12 25 9 0 16 -8 16 -20 0 -11 5 -20 11 -20 6 0 8
9 4 20 -5 16 -2 20 14 20 13 0 21 -6 21 -16 0 -9 6 -14 13 -11 6 2 11 11 9 19
-2 16 24 33 31 20 2 -4 8 -20 12 -37 l8 -30 7 25 c3 14 2 28 -3 31 -5 4 -4 10
3 14 16 10 30 -12 30 -47 0 -16 4 -28 8 -28 4 0 8 16 8 35 0 19 -5 35 -10 35
-6 0 0 6 14 13 14 7 34 11 45 8 11 -2 14 -6 7 -9 -17 -5 -15 -22 3 -22 8 0 15
6 15 14 0 8 4 17 9 20 5 3 8 0 7 -7 -3 -26 20 -15 31 16 11 30 12 31 19 9 3
-12 11 -22 16 -22 5 0 7 4 3 9 -3 6 4 15 15 21 16 9 22 8 27 -6 5 -15 8 -14
16 7 6 13 11 28 11 33 1 5 7 11 14 14 8 2 10 -2 6 -12 -5 -14 0 -16 32 -14 34
3 39 7 42 31 4 29 20 35 41 15 9 -8 11 -8 8 -2 -4 7 -1 14 7 17 8 3 18 -5 25
-20 7 -14 14 -23 17 -20 3 3 1 14 -5 26 -9 16 -8 22 6 30 17 10 17 10 -1 11
-37 0 -146 -24 -146 -32 0 -5 -5 -6 -10 -3 -6 4 -27 1 -48 -6 -20 -7 -39 -14
-42 -14 -11 -3 -97 -16 -120 -19 -14 -2 -36 -6 -50 -9 -41 -10 -150 -14 -150
-5 0 4 18 8 40 8 28 0 40 4 40 14 0 8 -6 17 -12 19 -10 4 -10 6 0 6 21 2 13
21 -9 21 -11 0 -18 -4 -15 -9 3 -5 -2 -15 -12 -22 -9 -7 -14 -9 -10 -5 4 5 2
16 -5 24 -9 12 -9 16 1 19 18 7 14 33 -5 33 -14 0 -15 -2 -4 -9 7 -5 9 -10 3
-12 -6 -2 -12 -15 -14 -29 -1 -14 -7 -28 -13 -32 -15 -11 -35 -10 -35 3 0 5 6
7 13 3 9 -5 9 -4 0 6 -14 15 -29 7 -36 -20 -5 -18 -1 -21 18 -18 13 2 24 -1
25 -6 0 -5 -17 -11 -37 -13 -21 -2 -48 -5 -60 -8 -34 -8 -28 3 12 19 35 15 46
40 23 49 -9 3 -7 10 7 21 20 16 20 17 -5 14 -20 -2 -26 -10 -30 -38 -4 -24
-11 -36 -25 -39 -17 -3 -18 -1 -6 13 8 9 11 19 8 23 -4 3 -2 12 4 20 7 8 8 13
1 13 -5 0 -10 10 -10 23 0 54 -6 87 -14 87 -5 0 -7 -4 -3 -9 3 -5 1 -13 -5
-16 -8 -5 -6 -15 5 -31 8 -13 11 -24 6 -24 -16 0 -24 -52 -9 -61 10 -7 9 -9
-4 -9 -16 0 -22 13 -21 47 1 7 -3 11 -7 8 -5 -3 -11 1 -14 7 -4 7 -5 4 -3 -8
5 -26 -23 -86 -43 -92 -12 -3 -12 -2 -2 6 15 10 15 18 1 43 -5 10 -4 20 3 27
7 7 8 12 4 12 -5 0 -2 8 5 17 8 10 0 7 -18 -7 -18 -13 -30 -27 -27 -32 3 -4 0
-8 -6 -8 -17 0 -24 31 -10 40 11 7 10 14 -3 41 -16 33 -14 54 4 44 5 -4 9 -1
9 5 0 6 -7 13 -15 16 -8 4 -13 10 -10 14 3 5 0 12 -6 16 -7 4 -9 3 -5 -4 3 -6
2 -13 -4 -17 -6 -4 -7 -11 -4 -17 9 -15 11 -149 2 -154 -4 -3 -5 -11 -1 -19 3
-8 0 -15 -7 -15 -7 0 -11 13 -10 33 1 17 1 57 0 87 -2 43 -4 50 -10 30 l-8
-25 -1 26 c-1 14 -4 29 -8 33 -4 3 -8 13 -9 21 -1 7 -14 29 -28 48 -14 19 -26
40 -27 48 0 8 -14 34 -30 59 -16 25 -36 60 -45 79 -9 19 -27 49 -40 66 -13 18
-24 37 -24 43 0 7 -4 12 -9 12 -5 0 -11 11 -13 25 -5 26 16 59 40 61 25 2 29
5 45 40 10 19 13 33 7 29 -6 -4 -9 3 -7 16 5 32 25 35 38 6 8 -18 17 -23 35
-19 13 2 24 8 24 12 0 5 13 15 29 23 27 13 31 13 51 -7 l22 -21 -4 32 c-4 25
0 34 14 39 10 3 26 16 34 30 9 13 23 24 30 24 8 0 14 5 14 10 0 16 42 53 49
43 3 -5 15 -13 26 -17 18 -7 18 -5 -2 14 -13 11 -23 22 -23 24 0 13 50 57 59
52 7 -5 9 3 4 25 -5 26 -3 31 8 24 11 -6 12 -5 2 6 -7 7 -13 23 -13 35 0 13 6
26 13 30 6 4 9 3 4 -1 -8 -9 21 -45 36 -45 6 0 2 7 -9 15 -10 8 -15 15 -11 15
4 0 3 9 -3 20 -6 11 -15 18 -21 15 -5 -4 -9 5 -9 19 0 28 -15 43 -23 24 -3 -7
-3 28 0 77 3 50 10 93 15 96 5 3 9 29 10 57 0 29 4 52 9 52 5 0 9 -4 9 -10 0
-5 7 -7 15 -3 9 3 15 2 14 -3 -4 -17 23 -70 28 -56 3 8 0 19 -6 25 -14 14 -14
27 0 27 5 0 8 -4 5 -8 -2 -4 4 -19 15 -32 10 -14 19 -19 19 -12 0 7 4 11 10 7
5 -3 6 -13 3 -23 -6 -16 -6 -16 11 1 19 18 31 23 21 8 -3 -5 -1 -12 5 -16 5
-3 10 -1 10 5 0 6 51 -40 113 -102 63 -62 113 -115 111 -116 -1 -2 -11 5 -22
15 -26 24 -102 86 -118 96 -8 4 -14 12 -14 18 0 5 -11 20 -25 33 -14 13 -25
28 -25 35 0 6 -4 11 -9 11 -25 0 -16 -22 29 -71 28 -30 50 -57 50 -61 0 -5 7
-8 16 -8 11 0 14 -6 9 -22 -4 -15 -3 -18 3 -10 6 9 16 6 39 -15 17 -16 43 -36
57 -46 15 -10 23 -23 20 -29 -4 -7 -2 -8 4 -4 7 4 12 2 12 -5 0 -7 3 -9 7 -6
3 4 -1 15 -10 25 -10 10 -14 21 -11 25 8 8 64 -44 64 -58 0 -6 9 -16 20 -23
12 -7 18 -17 15 -22 -3 -6 1 -7 9 -4 9 3 16 1 16 -5 0 -6 7 -11 15 -11 8 0 15
-4 15 -9 0 -5 17 -18 38 -29 28 -15 37 -25 35 -43 -1 -13 1 -19 3 -12 6 12 83
-34 84 -50 0 -5 18 -30 40 -56 22 -26 40 -53 40 -59 0 -7 4 -12 9 -12 5 0 11
-8 14 -17 3 -10 17 -46 31 -80 21 -50 27 -84 32 -175 3 -62 2 -140 -3 -173 -5
-33 -6 -73 -2 -90 4 -16 7 -24 8 -17 0 6 8 12 16 12 8 0 15 -6 16 -12 1 -7 4
-2 8 11 8 28 41 38 42 13 0 -13 2 -13 8 3 5 13 3 28 -6 42 -8 12 -13 28 -10
35 4 8 6 6 6 -4 1 -10 5 -18 10 -18 12 0 1 74 -11 78 -4 2 -8 10 -8 18 0 8 6
11 15 8 18 -7 21 22 3 29 -10 4 -10 7 -1 14 16 12 20 136 5 141 -8 2 -7 8 3
18 8 8 13 25 11 37 -3 25 -36 37 -36 13 0 -9 5 -15 11 -13 6 1 14 -4 16 -10 3
-7 -2 -13 -11 -13 -9 0 -16 -7 -16 -15 0 -8 -4 -15 -9 -15 -5 0 -8 22 -8 50 1
38 5 50 17 50 13 1 13 2 0 13 -12 10 -15 38 -15 144 0 73 3 133 7 133 3 0 7
47 7 104 1 57 4 111 7 120 3 9 2 16 -4 16 -19 0 -39 -166 -42 -360 -2 -134
-15 -252 -20 -185 -1 17 -3 73 -4 125 -2 52 -4 97 -5 100 -8 16 -8 149 0 144
13 -8 11 20 -2 33 -8 8 -9 20 -1 41 7 22 7 33 -1 42 -9 10 -8 12 6 7 19 -7 21
0 7 23 -5 9 -5 19 1 27 6 7 8 17 5 22 -4 5 -1 13 5 17 8 5 8 9 -1 14 -9 6 -9
13 -1 28 8 15 7 23 -3 31 -18 15 -27 2 -15 -20 12 -23 3 -24 -19 -2 -12 12
-13 18 -4 21 15 5 16 32 2 32 -6 0 -14 -9 -18 -20 -8 -20 -8 -20 -32 5 -13 14
-19 25 -13 25 6 0 13 -6 16 -12 3 -10 8 -10 16 -2 16 15 3 44 -16 37 -9 -4
-14 -2 -10 3 3 5 -8 19 -24 29 -16 11 -29 23 -29 28 0 4 -5 7 -10 7 -21 0 -5
-35 22 -49 22 -11 26 -18 22 -41 -4 -15 -1 -31 5 -34 6 -4 11 -13 11 -19 0 -8
-3 -8 -8 -2 -4 6 -19 20 -34 31 -19 15 -24 25 -17 35 7 11 9 11 9 -3 0 -22 16
-24 24 -3 4 11 -5 21 -28 32 -19 9 -37 23 -40 32 -3 9 -9 23 -12 31 -3 10 0 9
9 -3 8 -10 17 -15 19 -10 9 17 7 62 -2 68 -6 3 -10 13 -10 21 0 11 6 14 23 9
21 -6 21 -6 3 9 -14 11 -22 13 -27 5 -8 -13 -49 5 -49 21 0 14 14 12 28 -2 9
-9 12 -6 12 17 0 15 -3 25 -7 22 -3 -4 -17 5 -30 19 -18 20 -27 24 -36 15 -8
-8 -8 -11 0 -11 17 0 44 -30 38 -41 -11 -16 -27 -10 -21 8 4 10 4 14 0 11 -6
-7 -174 159 -174 172 0 4 -12 12 -26 18 -20 10 -28 9 -40 -2 -8 -8 -11 -22 -8
-31 5 -12 -1 -9 -17 7 -13 13 -33 30 -44 38 -11 9 -29 26 -40 40 -11 15 -3 10
20 -11 41 -37 75 -55 75 -40 0 9 -134 123 -150 129 -6 2 -10 -1 -10 -7 0 -6 6
-11 14 -11 7 0 16 -9 19 -20 4 -17 2 -18 -14 -9 -10 5 -19 14 -19 19 0 5 -10
18 -22 30 -18 17 -19 20 -5 20 15 0 14 3 -5 25 -11 13 -25 22 -29 19 -5 -3 -6
2 -3 10 3 9 10 13 15 10 5 -3 9 0 9 5 0 6 -9 16 -20 23 -24 16 -27 43 -4 34
14 -6 15 -4 4 9 -10 12 -15 13 -21 4 -5 -9 -11 -8 -24 4 -15 15 -15 17 -1 17
22 0 20 17 -4 32 -25 16 -26 27 -1 25 11 0 18 -4 15 -8 -2 -4 3 -12 11 -19 13
-11 14 -10 9 6 -4 10 -11 24 -15 29 -7 10 -9 16 -9 34 0 4 -14 22 -30 40 -17
17 -28 31 -26 31 15 0 56 -25 56 -33 0 -6 3 -7 6 -4 9 8 -37 57 -53 57 -7 0
-13 7 -13 15 0 18 17 20 23 3 2 -7 8 -10 12 -6 4 4 -2 17 -14 29 -20 21 -24
69 -8 86 4 3 7 16 7 27 0 18 -2 18 -14 6 -9 -9 -17 -43 -20 -85 -2 -38 -5 -73
-5 -77 -1 -4 -7 -5 -15 -2 -8 3 -15 -3 -18 -14 -4 -15 -1 -18 13 -15 18 5 19
-1 18 -78 0 -70 -2 -79 -11 -56 -14 39 -42 32 -46 -12 -2 -18 2 -39 9 -45 9
-8 10 -4 6 22 -5 24 -3 32 8 32 27 0 10 -63 -28 -105 -17 -19 -17 -18 -11 15
5 32 4 34 -10 17 -22 -28 -51 -18 -49 17 2 24 0 26 -14 15 -13 -11 -17 -10
-29 6 -20 27 -17 -1 3 -32 13 -19 14 -28 5 -31 -6 -2 -12 -10 -12 -17 0 -20
-22 -65 -32 -65 -4 0 -8 8 -8 18 0 9 -7 25 -14 35 -10 12 -11 28 -6 52 5 20 4
33 -1 29 -5 -3 -9 -13 -9 -24 0 -22 -30 -17 -72 12 -16 11 -28 18 -29 16 -8
-35 -7 -38 19 -32 15 4 24 3 20 -1 -4 -4 3 -16 15 -25 l22 -18 -24 -26 c-27
-28 -47 -33 -54 -13 -2 6 -8 8 -13 4 -4 -4 -3 -16 4 -27 11 -19 2 -36 -12 -23
-4 4 -17 8 -29 8 -12 0 -23 7 -25 17 -2 12 1 16 11 13 19 -8 40 20 33 42 -3
10 -19 24 -36 30 -23 9 -30 18 -30 37 0 30 5 31 43 12 15 -8 27 -12 27 -8 0
13 -15 29 -37 41 -27 14 -29 30 -7 57 11 14 17 16 21 6 4 -9 8 -10 18 -2 10 8
11 20 4 42 -10 35 -2 78 13 78 6 0 7 -11 4 -26 -5 -17 -3 -23 4 -19 6 4 10 -4
10 -19 0 -14 5 -28 12 -32 8 -5 9 2 4 27 -22 97 -23 109 -10 136 8 15 25 70
37 120 13 51 26 91 28 89 2 -2 5 32 7 77 2 55 -3 96 -14 131 -19 58 -59 122
-80 130 -8 3 -14 11 -14 19 0 13 -52 57 -68 57 -22 0 -44 40 -39 70 5 22 3 30
-8 30 -8 0 -16 9 -16 20 -2 21 -5 38 -9 43 -1 1 -4 52 -5 112 -4 116 -13 174
-38 241 -8 22 -18 56 -21 75 -24 141 -108 381 -163 462 -18 27 -33 53 -33 58
0 5 -5 9 -10 9 -6 0 -26 16 -45 35 -36 35 -92 72 -153 101 -31 14 -144 24
-202 17z m-93 -249 c-4 -4 5 -17 20 -29 20 -18 24 -28 19 -50 -5 -20 -11 -25
-26 -20 -13 4 -20 2 -20 -7 -1 -9 -5 -7 -14 5 -7 9 -25 17 -39 17 -29 0 -61
-26 -52 -44 3 -6 8 -19 11 -29 5 -12 12 -16 23 -11 9 4 35 10 59 14 41 7 69
20 42 20 -7 0 -11 2 -8 5 5 6 56 -9 104 -31 38 -17 94 -80 94 -107 0 -11 11
-30 25 -43 28 -26 34 -57 10 -48 -9 4 -15 0 -15 -10 0 -9 -4 -16 -10 -16 -5 0
-10 5 -10 11 0 5 -4 8 -9 4 -5 -3 -12 4 -16 15 -4 11 -12 20 -18 18 -7 -1 -22
2 -35 6 -18 6 -21 11 -12 21 6 8 19 11 28 8 9 -4 -2 10 -26 30 -25 21 -58 39
-80 42 -20 3 -57 11 -80 17 -26 7 -47 7 -50 2 -4 -5 -16 -10 -27 -12 -11 -2
-24 -9 -29 -16 -7 -11 -19 -8 -58 12 -26 13 -58 26 -70 27 -13 1 -28 3 -35 4
-13 1 5 71 19 71 4 0 8 6 8 14 0 28 30 46 76 46 34 0 54 7 80 27 20 14 52 30
72 34 52 10 56 10 49 3z m-167 -394 c18 -9 25 -30 44 -113 5 -20 11 -27 21
-23 18 6 20 -15 3 -32 -7 -7 -17 -8 -29 -2 -18 10 -119 11 -119 2 0 -3 7 -14
16 -24 14 -15 15 -20 3 -34 -23 -28 -62 -38 -76 -19 -10 15 -13 12 -19 -21 -7
-38 3 -68 25 -70 6 -1 16 -2 21 -3 6 0 10 -10 10 -20 0 -11 -4 -23 -10 -26 -5
-3 -10 -11 -10 -16 0 -6 5 -7 11 -3 8 5 8 1 0 -14 -7 -14 -8 -23 -1 -27 16
-10 12 -25 -5 -18 -9 3 -14 8 -11 10 2 3 -5 26 -16 51 -40 93 -60 168 -65 243
l-5 76 45 -11 46 -10 -6 -43 c-5 -38 -4 -43 11 -37 9 3 16 17 16 31 0 26 29
83 42 83 4 0 8 6 8 14 0 20 18 66 25 66 4 0 15 -5 25 -10z m463 -29 c6 -6 12
-39 14 -73 1 -35 5 -73 7 -86 3 -13 -4 -37 -14 -55 -11 -18 -27 -48 -35 -67
-16 -36 -92 -120 -108 -120 -5 0 -21 -8 -35 -19 -15 -10 -43 -21 -62 -24 -19
-2 -61 -13 -93 -22 -45 -14 -61 -15 -66 -6 -4 7 -14 11 -22 9 -21 -5 -24 41
-2 57 16 12 16 16 4 36 -12 21 -11 25 15 47 17 15 30 20 32 13 2 -6 10 -11 17
-11 7 0 15 -9 18 -20 6 -21 51 -29 62 -10 11 18 18 122 9 128 -20 15 -33 59
-21 72 9 10 8 12 -5 7 -10 -4 -18 -2 -18 3 0 6 8 10 18 11 14 0 14 2 -3 9 -19
8 -19 9 -1 9 43 2 85 25 95 52 6 18 22 34 44 43 19 7 38 19 42 26 9 15 91 8
108 -9z m-968 -1545 c2 -20 7 -42 11 -48 11 -17 12 -88 2 -94 -11 -7 -10 -75
1 -93 7 -10 4 -19 -7 -28 -16 -11 -15 -12 3 -13 14 0 16 -3 8 -11 -6 -6 -9
-19 -5 -28 5 -14 4 -14 -12 -2 -32 27 -39 51 -19 67 10 7 13 14 8 14 -6 0 -16
-5 -23 -12 -17 -17 -27 -1 -11 19 12 15 12 16 -2 11 -9 -4 -20 2 -28 14 -10
16 -10 19 1 12 7 -4 2 5 -11 19 -29 32 -25 51 27 158 39 79 48 81 57 15z
m1860 -61 c25 -24 35 -43 35 -65 l0 -31 -23 27 c-38 43 -57 28 -57 -46 0 -33
4 -60 9 -60 14 0 23 37 16 60 -4 12 -2 20 5 20 17 0 23 -26 15 -66 -5 -29 -10
-35 -26 -31 -16 4 -19 0 -20 -26 -1 -18 -1 -35 -1 -39 1 -3 -4 -11 -11 -16 -9
-8 -12 3 -11 46 2 65 -4 95 -16 87 -9 -6 -17 39 -12 73 4 24 27 30 35 10 2 -7
8 0 12 16 5 18 3 36 -4 47 -15 25 -14 29 4 29 9 0 31 -16 50 -35z m-2045 -375
c0 -9 8 -28 18 -41 9 -13 16 -35 15 -49 -5 -65 -7 -76 -16 -87 -7 -10 -17 -6
-40 17 -17 17 -34 30 -38 30 -7 0 -29 54 -29 71 0 5 6 9 13 9 7 0 20 18 29 40
13 28 22 38 33 34 8 -4 15 -14 15 -24z m1559 -41 c11 -12 25 -35 31 -53 11
-29 37 -86 119 -259 22 -45 33 -82 33 -112 0 -25 4 -47 9 -51 5 -3 9 -34 9
-68 0 -52 -4 -67 -23 -88 -13 -14 -21 -30 -19 -37 5 -15 -17 -43 -29 -35 -14
8 -11 44 4 45 6 0 2 5 -10 11 -13 6 -26 20 -29 32 -12 35 -5 109 12 134 20 31
20 91 0 131 -9 16 -16 35 -16 41 0 6 -11 28 -25 48 -14 20 -25 42 -25 49 0 7
-16 35 -36 62 -19 28 -45 69 -58 93 l-22 43 20 17 c27 22 31 22 55 -3z m-4354
-1563 c68 -19 98 -41 90 -67 -4 -12 3 -23 25 -35 29 -18 39 -34 21 -34 -6 0
-13 5 -17 11 -4 8 -13 4 -25 -12 -10 -13 -19 -27 -19 -31 0 -4 -5 -19 -11 -35
-6 -15 -10 -61 -9 -101 1 -56 -2 -73 -12 -71 -33 4 -48 -2 -48 -20 0 -11 -17
-38 -37 -60 -61 -65 -65 -71 -59 -86 4 -11 1 -13 -12 -6 -28 15 -95 39 -124
45 -18 4 -32 0 -44 -11 -43 -44 -110 -56 -136 -25 -14 16 -20 36 -49 158 -14
61 -4 168 15 161 10 -4 12 5 8 38 -3 32 0 48 12 60 9 9 16 23 16 31 0 8 4 14
10 14 5 0 9 16 8 35 -1 19 2 38 6 42 14 14 51 13 62 -2 13 -18 44 -10 44 12 0
28 25 6 28 -25 3 -27 12 -35 72 -66 43 -23 71 -32 75 -25 5 7 11 7 20 -1 23
-19 27 19 5 50 -11 15 -20 35 -20 43 0 8 -10 21 -22 30 -22 14 -20 14 22 7 25
-4 72 -15 105 -24z m1460 -7 c96 -14 135 -38 135 -83 0 -12 9 -34 20 -51 11
-16 20 -37 20 -46 0 -9 6 -22 14 -28 8 -7 18 -25 21 -41 3 -15 22 -57 40 -92
19 -34 35 -69 35 -76 0 -7 20 -54 45 -104 25 -51 45 -97 45 -104 0 -6 6 -24
14 -40 31 -65 30 -71 -16 -87 -41 -14 -143 -44 -314 -91 -45 -13 -95 -32 -111
-44 -17 -12 -33 -19 -36 -15 -4 3 -13 0 -22 -7 -11 -9 -15 -9 -15 -1 0 8 -6 9
-17 3 -30 -14 -78 0 -81 25 -2 12 -10 23 -19 25 -12 2 -17 17 -20 53 -4 50
-17 89 -40 113 -16 16 -16 27 -2 54 7 13 7 23 2 27 -18 11 -34 51 -38 96 -3
25 -9 53 -14 62 -32 65 -52 118 -66 183 -10 41 -21 84 -25 95 -38 93 -33 112
36 121 38 6 141 34 219 60 22 8 54 12 70 10 17 -3 70 -10 120 -17z m-969 -91
c3 -11 12 -17 19 -14 10 3 12 -1 9 -12 -4 -11 2 -8 17 8 l22 25 -7 -40 c-10
-52 -73 -232 -86 -245 -3 -3 -16 -22 -30 -42 -14 -21 -28 -38 -32 -38 -5 0 -8
-6 -8 -14 0 -7 -16 -40 -35 -72 -20 -33 -38 -70 -41 -84 -2 -14 -11 -45 -19
-70 -16 -49 -20 -156 -6 -164 29 -18 6 -229 -40 -366 -14 -40 -23 -96 -25
-145 -4 -104 -4 -104 -14 -77 -11 27 -30 29 -30 3 0 -10 -6 -21 -14 -24 -7 -3
-20 -25 -29 -50 -8 -24 -23 -54 -33 -65 -46 -54 -46 35 1 154 21 51 44 138 56
204 11 63 31 162 44 220 20 86 24 129 22 230 -2 113 0 130 22 175 12 28 29 57
37 65 14 16 9 60 -7 60 -5 0 -9 21 -9 48 0 50 17 86 77 159 19 23 39 57 44 76
5 20 21 56 35 81 26 47 48 52 60 14z"/>
<path d="M520 1822 c0 -6 9 -21 20 -34 11 -12 28 -33 37 -45 15 -18 31 -23 93
-26 41 -2 84 -8 95 -12 17 -8 17 -4 -7 35 -24 41 -30 45 -99 63 -103 26 -139
31 -139 19z"/>
<path d="M1566 4554 l5 -112 -63 -10 c-192 -32 -340 -54 -344 -50 -2 3 -10 51
-17 106 -8 56 -17 105 -21 109 -4 5 -5 -3 -2 -17 2 -14 8 -68 11 -121 l6 -96
-77 -12 c-43 -6 -79 -13 -80 -14 -5 -5 47 -141 58 -154 6 -8 11 -23 12 -36 1
-22 3 -22 126 -19 69 2 152 7 184 11 56 8 61 7 83 -17 13 -14 23 -33 23 -43 0
-18 2 -18 34 -2 49 23 68 72 53 138 -2 11 -2 15 0 8 3 -8 10 -6 22 6 22 22 31
45 37 91 3 19 9 37 14 38 6 2 10 12 10 22 0 10 5 22 11 25 6 4 8 14 5 22 -3 8
-1 11 4 8 13 -8 13 8 -1 22 -8 8 -8 13 0 18 6 3 10 3 9 -2 -7 -20 16 -15 23 6
8 19 6 22 -6 17 -13 -4 -14 -2 -5 14 8 16 8 20 -2 18 -8 -2 -13 6 -12 20 0 12
-5 22 -13 22 -7 0 -13 -5 -13 -12 0 -24 -13 3 -19 39 -5 27 -11 38 -24 38 -10
0 -22 7 -27 15 -6 10 -7 -25 -4 -96z"/>
<path d="M1170 4103 c-47 -2 -89 -8 -93 -12 -11 -11 21 -180 37 -200 6 -8 10
-16 8 -18 -2 -2 0 -17 3 -34 5 -22 11 -29 22 -25 11 4 13 2 9 -9 -9 -24 0 -18
58 34 l55 50 -32 4 c-30 4 -29 4 5 3 27 0 46 8 76 34 22 19 58 51 81 70 28 24
41 43 41 60 0 52 -6 53 -270 43z"/>
<path d="M872 4074 c-20 -14 -22 -23 -22 -124 0 -128 6 -137 91 -125 33 5 49
3 49 -4 0 -7 22 -11 56 -11 54 0 56 1 50 23 -3 12 -6 28 -6 35 0 6 -10 13 -22
13 -17 1 -19 2 -5 6 19 5 23 43 7 89 -5 16 -14 48 -20 72 l-11 42 -72 0 c-49
0 -80 -5 -95 -16z"/>
<path d="M1390 3974 c-19 -13 -46 -37 -60 -53 -14 -15 -37 -36 -52 -45 -14 -9
-37 -33 -50 -52 -12 -19 -33 -37 -45 -40 -27 -7 -30 -19 -5 -21 58 -3 80 -8
73 -18 -5 -5 -12 -21 -16 -33 l-7 -24 21 21 c26 26 107 31 97 6 -6 -17 7 -19
35 -5 21 12 24 3 6 -21 -7 -9 -18 -14 -24 -12 -7 3 -13 0 -13 -6 0 -6 -8 -11
-17 -12 -13 0 -11 -3 7 -10 17 -7 26 -7 28 0 2 6 9 11 15 11 5 0 7 -3 4 -7 -4
-3 0 -14 9 -24 15 -16 14 -17 -8 -13 -12 2 -17 1 -9 -2 14 -7 -80 -53 -109
-54 -14 0 -138 -48 -187 -72 -11 -6 -27 -8 -35 -5 -7 2 -2 8 15 12 15 4 27 11
27 17 0 5 -5 6 -10 3 -6 -3 -13 1 -16 10 -4 10 -13 13 -25 10 -11 -4 -19 -2
-19 4 0 6 -11 11 -25 11 -14 0 -25 -5 -25 -11 0 -6 -6 -9 -12 -6 -7 2 -22 -1
-33 -7 -11 -6 -36 -16 -55 -22 l-35 -11 30 -1 c17 0 43 -5 58 -11 39 -15 52
-14 37 3 -6 8 -17 13 -24 10 -7 -3 -13 2 -13 11 0 8 9 15 20 15 21 0 77 -30
77 -42 0 -4 -18 -13 -39 -19 -33 -10 -45 -9 -74 5 -19 9 -43 16 -53 16 -17 0
-17 -1 1 -14 11 -7 23 -14 27 -15 4 -1 19 -13 32 -26 36 -35 83 -32 218 14 62
21 142 48 178 59 78 26 179 59 238 79 24 9 56 27 71 42 15 14 42 38 60 53 37
32 32 52 -10 46 -16 -3 -29 -1 -29 3 0 5 -16 11 -35 15 -40 7 -43 21 -20 77 8
20 15 41 15 47 0 16 -28 12 -50 -7 -14 -13 -17 -20 -8 -30 8 -10 5 -13 -11
-13 -15 0 -20 4 -16 13 4 6 1 5 -7 -4 -14 -17 -48 -22 -48 -7 0 5 12 14 28 20
24 10 25 12 7 16 -11 2 -25 8 -31 13 -6 5 -20 6 -30 3 -16 -6 -17 -5 -6 7 13
14 17 130 5 128 -5 0 -24 -12 -43 -25z"/>
<path d="M1210 3659 c0 -5 5 -9 10 -9 6 0 10 -4 10 -9 0 -5 -40 -24 -90 -42
-49 -18 -90 -36 -90 -40 0 -13 60 -31 82 -26 69 17 159 47 184 62 16 9 21 14
11 11 -10 -3 -20 0 -23 9 -3 7 -12 11 -20 8 -9 -3 -12 0 -9 8 3 9 -7 18 -30
25 -19 6 -35 7 -35 3z"/>
</g>
</svg>
